<?xml version="1.0" encoding="UTF-8"?>
<svg id="Layer_2" data-name="Layer 2" xmlns="http://www.w3.org/2000/svg" viewBox="0 0 70.57 80.96">
  <defs>
    <style>
      .cls-1 {
        fill: #fff;
        stroke-width: 0px;
      }
    </style>
  </defs>
  <g id="Layer_1-2" data-name="Layer 1">
    <g>
      <path class="cls-1" d="M52.23,51.59s.01-.01.01-.02c.01-.01.01-.02.02-.03l.59-1.03s.01-.01.01-.02"/>
      <path class="cls-1" d="M18.32,51.57s-.01-.02-.02-.03"/>
      <path class="cls-1" d="M70.57,35.28c0,16.08-10.76,29.65-25.48,33.89l5.92-10.25c7.64-5.09,12.68-13.77,12.68-23.64s-5.54-19.4-13.8-24.36v36.19c-1.07.6-2.3.95-3.6.95-2.11,0-4.02-.89-5.35-2.33-.34-.39-.71-.77-1.11-1.08V11.04l-4.53,7.84-4.53-7.84v35.93c-.41.31-.78.69-1.11,1.08-1.34,1.44-3.24,2.33-5.35,2.33-1.3,0-2.53-.35-3.6-.95V10.92c-8.27,4.96-13.8,14.01-13.8,24.36s5.03,18.55,12.67,23.63l5.92,10.26C10.75,64.93,0,51.36,0,35.28,0,15.79,15.79,0,35.28,0s35.28,15.79,35.28,35.28Z"/>
      <path class="cls-1" d="M39.8,73.13l-4.52,7.83-4.53-7.83c1.49.2,3,.3,4.53.3s3.04-.1,4.52-.3Z"/>
      <path class="cls-1" d="M52.87,50.48s-.01.01-.01.02"/>
      <path class="cls-1" d="M52.23,51.59s.01-.01.01-.02c.01-.01.01-.02.02-.03"/>
      <path class="cls-1" d="M18.32,51.57s-.01-.02-.02-.03"/>
      <path class="cls-1" d="M52.23,51.61l-10.61,18.38c-2.05.38-4.17.58-6.34.58s-4.3-.2-6.35-.58l-8.24-14.29-2.37-4.11c.63.87,1.43,1.6,2.37,2.12,1.07.6,2.3.95,3.6.95,2.11,0,4.02-.89,5.35-2.33.34-.39.71-.77,1.11-1.08,1.24-1,2.81-1.58,4.53-1.58,2.26,0,4.3,1.03,5.64,2.66,1.34,1.44,3.24,2.33,5.35,2.33,2.45,0,4.62-1.21,5.96-3.05Z"/>
    </g>
  </g>
</svg>