<?xml version="1.0" encoding="UTF-8"?>
<svg id="Layer_2" data-name="Layer 2" xmlns="http://www.w3.org/2000/svg" viewBox="0 0 64 64">
  <defs>
    <style>
      .cls-1 {
        fill: #000;
      }

      .cls-1, .cls-2 {
        stroke-width: 0px;
      }

      .cls-2 {
        fill: #f26722;
      }
    </style>
  </defs>
  <g id="Layer_1-2" data-name="Layer 1">
    <rect class="cls-1" width="64" height="64" rx="2.77" ry="2.77"/>
    <g>
      <path class="cls-2" d="M42.05,38.59s0,0,0-.01c0,0,0-.01.01-.02l.35-.61s0,0,0-.01"/>
      <path class="cls-2" d="M21.94,38.58s0-.01-.01-.02"/>
      <path class="cls-2" d="M52.92,28.92c0,9.53-6.38,17.58-15.11,20.09l3.51-6.08c4.53-3.02,7.52-8.16,7.52-14.02s-3.28-11.5-8.18-14.44v21.46c-.63.36-1.36.56-2.13.56-1.25,0-2.38-.53-3.17-1.38-.2-.23-.42-.45-.66-.64V14.55l-2.68,4.65-2.68-4.65v21.31c-.24.19-.46.41-.66.64-.79.85-1.92,1.38-3.17,1.38-.77,0-1.5-.21-2.13-.56V14.48c-4.9,2.94-8.18,8.31-8.18,14.44s2.98,11,7.51,14.01l3.51,6.09c-8.73-2.51-15.1-10.56-15.1-20.09,0-11.56,9.36-20.92,20.92-20.92s20.92,9.36,20.92,20.92Z"/>
      <path class="cls-2" d="M34.68,51.36l-2.68,4.64-2.68-4.64c.88.12,1.78.18,2.68.18s1.8-.06,2.68-.18Z"/>
      <path class="cls-2" d="M42.43,37.93s0,0,0,.01"/>
      <path class="cls-2" d="M42.05,38.59s0,0,0-.01c0,0,0-.01.01-.02"/>
      <path class="cls-2" d="M21.94,38.58s0-.01-.01-.02"/>
      <path class="cls-2" d="M42.05,38.6l-6.29,10.9c-1.22.23-2.47.34-3.76.34s-2.55-.12-3.77-.34l-4.89-8.47-1.4-2.44c.37.52.85.95,1.4,1.26.63.36,1.36.56,2.13.56,1.25,0,2.38-.53,3.17-1.38.2-.23.42-.45.66-.64.74-.59,1.67-.94,2.68-.94,1.34,0,2.55.61,3.35,1.58.79.85,1.92,1.38,3.17,1.38,1.45,0,2.74-.72,3.53-1.81Z"/>
    </g>
  </g>
</svg>